<svg version="1.1" id="Layer_1" xmlns="http://www.w3.org/2000/svg" xmlns:xlink="http://www.w3.org/1999/xlink" x="0px" y="0px"
	 width="100%" viewBox="0 0 1024 1024" enable-background="new 0 0 1024 1024" xml:space="preserve">
<path fill="#000000" opacity="1.000000" stroke="none" 
	d="
M351.711365,640.346313 
	C354.200928,644.694519 357.537292,645.841431 362.237762,645.833984 
	C463.546906,645.673706 564.856323,645.664917 666.165649,645.757812 
	C670.697632,645.761963 674.366821,645.165527 676.590698,640.834290 
	C676.812439,640.402405 677.159119,639.941833 677.569641,639.713318 
	C686.022888,635.006409 685.089233,627.040222 685.878601,618.950745 
	C687.257141,604.822693 682.565491,594.599609 672.377625,584.711121 
	C654.707031,567.559875 638.485413,548.914368 621.704712,530.850342 
	C620.255615,529.290466 618.812683,528.277039 616.578430,528.334351 
	C611.749268,528.458374 606.911377,528.543091 602.085144,528.390015 
	C598.386963,528.272827 597.262939,529.814087 597.295227,533.433105 
	C597.442505,549.927551 597.349304,566.424194 597.347778,582.920044 
	C597.346741,593.823120 591.221313,600.470154 581.262146,600.363037 
	C572.273560,600.266357 565.755310,592.665344 565.760132,582.431763 
	C565.787720,523.446411 565.800842,464.461090 565.770874,405.475739 
	C565.769226,402.286499 566.005554,399.159607 566.722229,396.066895 
	C568.281250,389.339294 573.262085,384.697540 580.154236,384.773071 
	C602.790466,385.021118 625.476746,383.434570 648.056030,385.799347 
	C675.995544,388.725464 707.762329,414.869019 711.382263,448.879028 
	C715.294250,485.633362 695.776428,512.424072 666.574402,524.563232 
	C665.061707,525.192017 663.597534,525.937622 661.430115,526.945251 
	C665.897888,531.942566 670.014404,536.662292 674.254517,541.268311 
	C687.341736,555.485168 700.421570,569.709839 713.639221,583.804932 
	C716.232056,586.569946 717.299377,589.463013 717.250061,593.211182 
	C717.101013,604.539551 717.372681,615.874390 717.150024,627.200256 
	C717.066040,631.474670 718.165466,634.593140 721.288147,637.755493 
	C736.086853,652.742004 734.172668,674.432861 717.271729,686.805298 
	C705.464294,695.449036 688.444336,693.732605 678.326416,682.393494 
	C675.026917,678.695740 671.704041,677.218506 666.764099,677.222900 
	C564.955078,677.313232 463.145966,677.265442 361.337036,677.121033 
	C356.975677,677.114868 354.013153,678.387939 351.051849,681.667419 
	C341.244263,692.528931 326.768799,695.251404 314.747803,689.008728 
	C303.370728,683.100281 295.909302,668.481079 298.081940,656.355103 
	C300.746338,641.484375 311.375153,631.144287 325.923431,629.855591 
	C336.020691,628.961243 344.455536,632.913513 351.711365,640.346313 
M652.241333,419.252502 
	C649.563660,418.337280 646.870789,417.600159 644.028687,417.233978 
	C629.910645,415.415100 615.738953,416.786072 601.602173,416.338715 
	C597.396179,416.205627 597.296448,418.748230 597.304749,421.873352 
	C597.366882,445.367767 597.426086,468.862976 597.267334,492.356476 
	C597.239563,496.466705 598.463745,497.884979 602.646484,497.812775 
	C615.639648,497.588501 628.639465,497.785919 641.635864,497.698944 
	C661.867981,497.563477 680.274292,479.280548 680.664856,459.036804 
	C681.000000,441.662598 671.023499,427.398651 652.241333,419.252502 
M326.551178,665.978210 
	C329.479065,667.393127 331.658356,666.211792 333.457001,663.918945 
	C334.953583,662.011230 334.990662,659.961426 333.730591,657.920410 
	C332.414734,655.789124 330.431580,654.507690 327.961578,654.735229 
	C325.175323,654.991882 323.704224,657.064514 322.906982,659.576782 
	C321.970215,662.528748 323.713837,664.222412 326.551178,665.978210 
M704.748108,656.987549 
	C700.434082,654.053528 696.909302,654.291016 695.067688,657.829346 
	C693.249084,661.323608 694.709351,663.860657 697.815674,665.771179 
	C699.860291,667.028748 701.664490,666.357056 703.364319,665.130676 
	C706.104004,663.153992 706.256714,660.493713 704.748108,656.987549 
z"/>
<path fill="#000000" opacity="1.000000" stroke="none" 
	d="
M315.656006,485.999878 
	C315.652344,457.167267 315.636841,428.834625 315.651703,400.502014 
	C315.657257,389.898315 321.075470,383.799225 330.507629,383.672119 
	C340.878448,383.532349 347.246979,389.736328 347.295593,400.494568 
	C347.406982,425.160126 347.459442,449.827545 347.247803,474.491730 
	C347.206299,479.329529 348.695374,480.817291 353.487396,480.722198 
	C377.475311,480.246155 401.473663,481.076263 425.466492,480.168884 
	C429.950348,479.999268 431.111450,478.266388 431.087891,474.122955 
	C430.954498,450.625244 430.995148,427.126404 431.030365,403.628052 
	C431.033813,401.308289 431.272675,398.969391 431.623230,396.673096 
	C432.879272,388.445923 439.604279,383.267548 448.386353,383.660522 
	C456.361725,384.017426 462.167908,389.898315 462.348236,398.377014 
	C462.560791,408.371460 462.333923,418.374481 462.376129,428.373444 
	C462.575226,475.517395 462.810516,522.661194 463.003845,569.805176 
	C463.024292,574.794617 462.959717,579.789246 462.750366,584.773743 
	C462.342926,594.472900 455.192261,600.891785 445.609344,600.304688 
	C437.016235,599.778259 431.426727,592.452881 431.438721,583.052002 
	C431.466949,560.918335 431.011261,538.784485 430.924652,516.650024 
	C430.908112,512.430603 428.553345,512.273376 425.436493,512.275879 
	C401.103882,512.295471 376.770782,512.317688 352.438965,512.158630 
	C348.513763,512.132935 347.253632,513.418091 347.277832,517.344482 
	C347.415619,539.676331 347.422424,562.010193 347.278717,584.342102 
	C347.197479,596.971313 334.486450,604.397156 323.503174,598.414307 
	C317.594208,595.195679 314.859375,589.621277 315.166840,583.452454 
	C316.221130,562.296875 315.315186,541.146790 315.629486,519.998718 
	C315.795410,508.834778 315.657166,497.666321 315.656006,485.999878 
z"/>
<path fill="#000000" opacity="1.000000" stroke="none" 
	d="
M428.000000,334.099731 
	C405.842438,333.878662 384.171509,334.649323 362.530518,333.378326 
	C357.968170,333.110382 354.924255,334.420319 352.017853,338.263245 
	C343.854858,349.056549 328.765869,352.383728 316.435944,346.761017 
	C303.569885,340.893860 295.618805,326.447998 298.070679,313.281738 
	C300.305878,301.279083 306.088226,291.987885 318.558258,288.720795 
	C331.331116,285.374420 342.846252,288.045013 351.622040,298.302307 
	C354.617218,301.803131 357.673553,302.720306 361.933105,302.715637 
	C444.591400,302.625427 527.249817,302.648834 609.908203,302.614502 
	C614.822998,302.612457 619.627869,302.773132 623.426697,306.473419 
	C627.446228,310.388702 629.682251,314.928925 628.523438,320.759094 
	C627.211853,327.358246 623.101318,331.247589 616.893738,333.174866 
	C613.173523,334.329895 609.311340,334.122620 605.481750,334.122314 
	C546.487854,334.117279 487.493927,334.108276 428.000000,334.099731 
M328.409607,312.181946 
	C325.358551,312.291290 323.113800,313.553864 323.259033,316.878113 
	C323.402466,320.162079 325.308716,322.642914 328.571472,323.221802 
	C331.411346,323.725647 333.348572,321.669952 334.119476,319.196625 
	C335.429993,314.992188 332.782532,313.174805 328.409607,312.181946 
z"/>
<path fill="#000000" opacity="1.000000" stroke="none" 
	d="
M529.139648,589.616699 
	C526.116455,599.390564 516.659058,601.406860 509.649536,600.064453 
	C502.601715,598.714661 497.779938,591.571045 497.778137,582.989563 
	C497.773468,560.998596 497.833801,539.007568 497.832245,517.016602 
	C497.829529,478.860870 497.779053,440.705170 497.793579,402.549438 
	C497.798096,390.705200 504.000305,383.693634 514.333130,383.634583 
	C523.073303,383.584625 528.955566,389.057678 530.093018,398.405945 
	C530.313293,400.216187 530.252136,402.065552 530.252686,403.896881 
	C530.269897,463.213470 530.269226,522.530029 530.321411,581.846619 
	C530.323608,584.389893 529.885193,586.803162 529.139648,589.616699 
z"/>
<path fill="#000000" opacity="1.000000" stroke="none" 
	d="
M688.903198,262.585754 
	C714.149780,257.338440 737.331177,272.317200 742.881042,297.116180 
	C748.720398,323.208710 733.714355,347.061340 707.602112,353.193237 
	C678.597778,360.004303 649.113281,333.537598 652.547852,303.773895 
	C655.135376,281.349976 667.289917,267.438049 688.903198,262.585754 
M711.047485,297.530640 
	C709.737976,295.757416 707.982117,294.501404 706.127319,293.387726 
	C699.627258,289.484833 691.340332,290.716431 686.140137,296.326508 
	C680.676147,302.221161 680.214294,311.130859 685.028320,317.771027 
	C689.149719,323.455719 698.369141,325.960480 704.680420,323.110229 
	C714.558838,318.649139 717.346619,308.423553 711.047485,297.530640 
z"/>
<path fill="#000000" opacity="1.000000" stroke="none" 
	d="
M424.255432,716.388672 
	C430.847168,720.771912 434.019745,727.691406 439.052551,732.982849 
	C443.027191,737.161743 446.528595,741.790710 450.240143,746.219849 
	C450.710938,746.109802 451.181732,745.999817 451.652527,745.889771 
	C451.652527,738.860840 451.790894,731.828247 451.604248,724.804260 
	C451.478302,720.065002 453.838287,717.290222 457.923035,715.712524 
	C465.261566,712.878174 471.793152,717.133606 472.199860,725.261841 
	C472.524139,731.742493 472.301758,738.250793 472.311035,744.746826 
	C472.325500,754.908020 472.336395,765.069153 472.337250,775.230347 
	C472.337677,780.015747 470.295746,783.748718 465.878845,785.567322 
	C461.275848,787.462585 457.044708,786.383667 453.717743,782.512939 
	C447.422211,775.188416 441.151703,767.842468 434.850311,760.523010 
	C433.782074,759.282166 432.919464,757.796387 430.288971,756.751343 
	C430.288971,763.173462 430.399506,769.201355 430.258057,775.223267 
	C430.115448,781.294922 426.938599,785.433228 422.097809,786.282288 
	C415.452576,787.447876 409.996399,783.561218 409.858521,776.499695 
	C409.517120,759.015869 409.516724,741.518433 409.792175,724.032959 
	C409.906830,716.753601 416.558380,713.359253 424.255432,716.388672 
z"/>
<path fill="#000000" opacity="1.000000" stroke="none" 
	d="
M513.456177,715.617188 
	C521.729370,715.638794 529.553833,715.583435 537.376099,715.690857 
	C543.590759,715.776184 547.318848,719.423035 547.302002,725.139404 
	C547.286926,730.245728 543.787720,733.201599 537.468262,733.279846 
	C532.642578,733.339661 527.812439,733.333496 522.989197,733.190369 
	C519.166565,733.076904 518.276733,735.013062 518.263123,738.473328 
	C518.249512,741.937866 519.851196,742.743469 522.852905,742.667297 
	C527.011169,742.561768 531.181641,742.520264 535.334290,742.717468 
	C540.701660,742.972473 544.070557,746.336609 544.055420,751.082275 
	C544.041260,755.517395 540.237549,759.112427 535.099609,759.301941 
	C530.943298,759.455261 526.776550,759.432922 522.616943,759.354370 
	C519.288086,759.291443 518.381592,761.082092 518.285034,764.059570 
	C518.181030,767.264526 519.828430,768.006042 522.601074,768.029236 
	C528.085876,768.075317 533.589233,767.726379 539.046082,768.642944 
	C545.109192,769.661316 548.550659,773.069946 548.299561,777.869080 
	C548.044189,782.750427 543.855957,786.213013 537.723511,786.271667 
	C528.735962,786.357727 519.745605,786.315125 510.758087,786.200317 
	C503.088379,786.102356 498.732422,781.719666 498.694824,774.029907 
	C498.622375,759.215454 498.653931,744.400452 498.662140,729.585632 
	C498.668274,718.559631 501.915253,715.410522 513.456177,715.617188 
z"/>
<path fill="#000000" opacity="1.000000" stroke="none" 
	d="
M625.893188,720.371643 
	C628.066284,729.594177 624.413452,734.179871 615.373657,734.130188 
	C614.209167,734.123779 613.039185,734.141663 611.881531,734.038330 
	C608.165710,733.706848 606.915344,735.478027 606.962891,739.058411 
	C607.119812,750.871155 607.136902,762.686646 607.102112,774.500732 
	C607.083252,780.889160 604.335693,784.975647 599.629211,786.054749 
	C593.171021,787.535522 587.833191,783.298584 587.651245,776.296631 
	C587.335876,764.159851 587.166138,752.019104 586.977173,739.879395 
	C586.879761,733.618164 586.725159,733.418823 580.532593,733.407471 
	C579.035034,733.404724 577.537415,733.432190 576.039856,733.429443 
	C570.251160,733.419006 566.876831,730.294922 566.727722,724.816467 
	C566.585876,719.604675 570.151245,715.769592 575.784363,715.677124 
	C586.431274,715.502319 597.082642,715.603394 607.732178,715.585205 
	C611.386230,715.578918 615.042236,715.626587 618.693848,715.525269 
	C622.103577,715.430603 624.423035,716.886230 625.893188,720.371643 
z"/>
</svg>