<?xml version="1.0" standalone="no"?>
<!DOCTYPE svg PUBLIC "-//W3C//DTD SVG 20010904//EN"
 "http://www.w3.org/TR/2001/REC-SVG-20010904/DTD/svg10.dtd">
<svg version="1.0" xmlns="http://www.w3.org/2000/svg"
 width="1024.000000pt" height="1024.000000pt" viewBox="0 0 1024.000000 1024.000000"
 preserveAspectRatio="xMidYMid meet">

<g transform="translate(0.000000,1024.000000) scale(0.100000,-0.100000)"
fill="#000000" stroke="none">
<path d="M4835 8744 c-339 -46 -591 -130 -858 -288 -332 -195 -602 -485 -776
-833 -49 -99 -115 -286 -136 -390 -41 -197 -55 -483 -34 -672 l12 -99 -38 -69
c-21 -37 -113 -185 -205 -328 -277 -433 -283 -443 -288 -502 -4 -43 0 -60 22
-98 40 -67 87 -94 198 -112 176 -28 199 -34 231 -63 l32 -28 5 -174 5 -175 30
-39 c28 -36 30 -45 30 -125 0 -79 2 -89 30 -128 67 -95 65 -87 65 -316 0 -243
5 -259 89 -348 91 -96 213 -137 353 -117 40 6 208 35 373 66 200 36 312 53
337 49 55 -10 124 -58 148 -104 19 -38 20 -57 20 -424 0 -431 1 -424 -72 -503
-23 -25 -118 -100 -212 -167 -440 -313 -722 -548 -933 -780 -63 -69 -73 -84
-73 -117 0 -45 32 -97 77 -122 34 -21 310 -83 533 -122 857 -147 1970 -166
2910 -50 406 50 875 136 950 174 46 23 76 63 85 110 9 51 -22 139 -113 325
-162 328 -357 611 -752 1090 -253 308 -259 316 -305 410 -106 218 -185 611
-185 920 0 193 46 301 225 525 328 411 491 747 569 1172 87 473 37 884 -157
1290 -275 576 -803 988 -1448 1132 -209 46 -531 59 -744 30z"/>
</g>
</svg>
